# xmcd
#
# Track frame offsets:
#	150
#	4971
#	13354
#	22096
#	30378
#	37411
#	46359
#	49363
#	54748
#	61255
#	66019
#	70750
#	77171
#	83080
#	86670
#	95327
#	102632
#	110123
#	118937
#	126215
#	130553
#	134497
#	141277
#	148297
#	155125
#	159461
#	165554
#	170490
#
# Disc length: 2306 seconds
#
# Revision: 0
# Processed by: cddbd v1.5.2PL0 Copyright (c) Steve Scherf et al.
# Submitted via: dBpowerAMP V4.0
#
DISCID=a309001c
DTITLE=Sarandon - The Completist's Library
DYEAR=2006
DGENRE=Alternative
TTITLE0=Pin Up
TTITLE1=Birds
TTITLE2=Make Fun
TTITLE3=Frank
TTITLE4=Your Devotion
TTITLE5=Bored
TTITLE6=Janet and Susan
TTITLE7=Hiccup
TTITLE8=Politique
TTITLE9=Mavis
TTITLE10=Little Cake
TTITLE11=Moo
TTITLE12=Humanoid
TTITLE13=Joe and James
TTITLE14=Don't Say No
TTITLE15=Prove It
TTITLE16=Health
TTITLE17=Manky
TTITLE18=A Hat
TTITLE19=Happy
TTITLE20=George and Maisie
TTITLE21=Kitten
TTITLE22=Angela
TTITLE23=Dance
TTITLE24=Meet Warren
TTITLE25=Virginity
TTITLE26=Lovely
TTITLE27=Anthony and Simon
EXTD=
EXTT0=
EXTT1=
EXTT2=
EXTT3=
EXTT4=
EXTT5=
EXTT6=
EXTT7=
EXTT8=
EXTT9=
EXTT10=
EXTT11=
EXTT12=
EXTT13=
EXTT14=
EXTT15=
EXTT16=
EXTT17=
EXTT18=
EXTT19=
EXTT20=
EXTT21=
EXTT22=
EXTT23=
EXTT24=
EXTT25=
EXTT26=
EXTT27=
PLAYORDER=
